<svg id="Layer_1" data-name="Layer 1" xmlns="http://www.w3.org/2000/svg" viewBox="0 0 341.23 77.5"><defs><style>.cls-1{fill:#fff;}</style></defs><title>maxcdn-logo-full-rgb</title><path d="M327.85,71.06a10.12,10.12,0,0,1-9.38,7.47H7.36a5.84,5.84,0,0,1-5.94-7.47L15.85,8.49A10.12,10.12,0,0,1,25.23,1h311.1a5.84,5.84,0,0,1,5.94,7.47Z" transform="translate(-1.23 -1.02)"/><path class="cls-1" d="M141.13,30.87l-6.94,32.58h-32a9.42,9.42,0,0,1-8.26-4.27,12.65,12.65,0,0,1-1.7-10,18.08,18.08,0,0,1,5.9-9.89A14.79,14.79,0,0,1,108.2,35H129l0.77-3.58a3.12,3.12,0,0,0-.47-2.5,2.46,2.46,0,0,0-2.14-1H99.56L102,16.09h28.14a10.57,10.57,0,0,1,9,4.37,12.36,12.36,0,0,1,1.94,10.41h0ZM107.85,44.51a3.82,3.82,0,0,0-2.64,1.08A4.43,4.43,0,0,0,103.69,48a3.25,3.25,0,0,0,0,1.37,2.89,2.89,0,0,0,.5,1.13,2.78,2.78,0,0,0,.92.78,2.59,2.59,0,0,0,1.25.3h19.12L127,44.51H107.85ZM169,39.75l10.24,23.7H164.86l-5.2-13.81L148.58,63.46H134.26l20.37-23.7L144.32,16.09h14.33l5.21,13.77,11.07-13.77h14.33L169,39.75h0Z" transform="translate(-1.23 -1.02)"/><path class="cls-1" d="M220.77,27.92H199.39a4.58,4.58,0,0,0-3,1.21A5.1,5.1,0,0,0,194.61,32l-3.3,15.41a3.47,3.47,0,0,0,.52,2.95,3,3,0,0,0,2.53,1.22h24.22l-2.53,11.83h-25.3a10.59,10.59,0,0,1-9-4.34,12.59,12.59,0,0,1-1.95-10.48l3.82-17.77A18.48,18.48,0,0,1,190,20.46a16.25,16.25,0,0,1,10.86-4.37h22.45l-2.5,11.83h0Z" transform="translate(-1.23 -1.02)"/><path class="cls-1" d="M270.49,39.55a19.51,19.51,0,0,0-3.62-16.44,19.48,19.48,0,0,0-15.32-7L230,16.07,219.86,63.47h25.75c11.37-.78,21.82-9.67,24.22-20.86ZM258.67,37L258,40.1c-1.29,6-7.85,11.35-14,11.36l-9.22,0,5-23.26h11.79a7.37,7.37,0,0,1,5.92,2.49A7.39,7.39,0,0,1,258.67,37Z" transform="translate(-1.23 -1.02)"/><path class="cls-1" d="M319.32,30.87l-6.94,32.58H301.14L307.84,32a3.77,3.77,0,0,0,0-1.59,3.11,3.11,0,0,0-.57-1.32,3.05,3.05,0,0,0-2.46-1.22h-18.6l-7.6,35.53H267.38l10.07-47.36h30.91a10.57,10.57,0,0,1,9,4.37q3.23,4.33,1.94,10.41h0Z" transform="translate(-1.23 -1.02)"/><path class="cls-1" d="M89.12,21.84a15.88,15.88,0,0,0-12.49-5.71H29.46L35.1,28.22,27.57,63.47H39.92l7.55-35.25H58L50.49,63.47H62.84l7.54-35.26h6.25a3.84,3.84,0,0,1,3.09,1.23,3.81,3.81,0,0,1,.56,3.27L73.7,63.47H86.05l6-28.23A15.9,15.9,0,0,0,89.12,21.84Z" transform="translate(-1.23 -1.02)"/></svg>