<?xml version="1.0" encoding="utf-8"?>
<!-- Generator: Adobe Illustrator 17.0.2, SVG Export Plug-In . SVG Version: 6.00 Build 0)  -->
<!DOCTYPE svg PUBLIC "-//W3C//DTD SVG 1.1//EN" "http://www.w3.org/Graphics/SVG/1.1/DTD/svg11.dtd">
<svg version="1.1" id="Layer_1" xmlns="http://www.w3.org/2000/svg" xmlns:xlink="http://www.w3.org/1999/xlink" x="0px" y="0px"
	 viewBox="0 0 172.122 27.924" enable-background="new 0 0 172.122 27.924"
	 xml:space="preserve">
<g id="MaxCDN_Type_Logo">
	<path fill="#FFFFFF" d="M66.912,8.718l-4.088,19.198H43.952c-2.098,0-3.721-0.838-4.867-2.514c-1.13-1.717-1.466-3.674-1-5.869
		c0.465-2.221,1.623-4.164,3.475-5.827c1.854-1.69,3.838-2.534,5.95-2.534h12.247l0.451-2.107c0.109-0.572,0.016-1.064-0.277-1.471
		c-0.291-0.411-0.713-0.613-1.259-0.613H42.421l1.449-6.973h16.581c2.278,0,4.048,0.858,5.318,2.577
		C67.036,4.288,67.417,6.332,66.912,8.718L66.912,8.718z M47.306,16.752c-0.572,0-1.092,0.213-1.554,0.635
		c-0.478,0.408-0.778,0.892-0.899,1.453c-0.057,0.285-0.057,0.555,0,0.807c0.055,0.252,0.152,0.475,0.295,0.666
		c0.144,0.189,0.324,0.342,0.543,0.457c0.219,0.119,0.463,0.176,0.736,0.176h11.266l0.877-4.193H47.306L47.306,16.752z
		 M83.31,13.952l6.032,13.964h-8.445l-3.065-8.137l-6.525,8.137h-8.441l12.001-13.964L68.792,0.008h8.445l3.066,8.117l6.523-8.117
		h8.442L83.31,13.952L83.31,13.952z"/>
	<path fill="#FFFFFF" d="M113.836,6.981H101.24c-0.625,0-1.221,0.239-1.777,0.714c-0.559,0.479-0.906,1.051-1.041,1.717
		l-1.943,9.078c-0.152,0.682-0.047,1.262,0.307,1.738c0.369,0.476,0.865,0.717,1.492,0.717h14.271l-1.492,6.971H96.15
		c-2.275,0-4.049-0.852-5.314-2.555c-1.268-1.746-1.648-3.803-1.146-6.176l2.25-10.467c0.504-2.386,1.75-4.428,3.74-6.133
		c1.979-1.719,4.109-2.577,6.4-2.577h13.23L113.836,6.981L113.836,6.981z"/>
	<path fill="#FFFFFF" d="M143.131,13.83c0.756-3.546-0.02-7.08-2.131-9.688c-2.115-2.615-5.402-4.109-9.027-4.109L119.27,0
		l-5.971,27.924h15.174c6.697-0.459,12.857-5.695,14.27-12.289L143.131,13.83z M136.168,12.341l-0.383,1.812
		c-0.764,3.559-4.627,6.684-8.264,6.69l-5.43,0.014l2.932-13.706h6.949c1.482,0,2.725,0.518,3.49,1.469
		C136.232,9.565,136.477,10.885,136.168,12.341z"/>
	<path fill="#FFFFFF" d="M171.904,8.718l-4.088,19.198h-6.625l3.947-18.503c0.068-0.326,0.072-0.639,0.01-0.939
		c-0.059-0.299-0.174-0.56-0.336-0.775c-0.166-0.219-0.371-0.394-0.625-0.523c-0.252-0.13-0.527-0.194-0.826-0.194h-10.959
		l-4.479,20.935h-6.625l5.932-27.908h18.215c2.277,0,4.049,0.858,5.316,2.577C172.031,4.288,172.412,6.332,171.904,8.718
		L171.904,8.718z"/>
	<path fill="#FFFFFF" d="M36.266,3.397c-1.734-2.142-4.413-3.365-7.358-3.365H1.118l3.324,7.122L0,27.924h7.28l4.445-20.77h0.254
		l-0.001-0.003h5.967l-4.44,20.772h7.281l4.439-20.772h3.682c0.797,0,1.444,0.259,1.818,0.725c0.383,0.466,0.499,1.152,0.332,1.928
		l-3.877,18.12h7.279l3.56-16.631C38.634,8.413,37.993,5.534,36.266,3.397z"/>
</g>
<g>
</g>
<g>
</g>
<g>
</g>
<g>
</g>
<g>
</g>
<g>
</g>
<g>
</g>
</svg>
